<svg width="841" height="312" xmlns="http://www.w3.org/2000/svg" clip-rule="evenodd">
 <defs>
  <style type="text/css">.fil0 {fill:black}</style>
 </defs>
 <g>
  <title>background</title>
  <rect fill="none" id="canvas_background" height="314" width="843" y="-1" x="-1"/>
 </g>
 <g>
  <title>Layer 1</title>
  <g id="svg_1">
   <path id="svg_2" d="m0,98l128,0l0,11l-128,0l0,-11zm600,41c10,0 19,3 26,8c0,-49 0,-98 0,-147l118,36c0,55 0,109 0,164c0,17 -19,26 -34,26c-19,0 -34,-12 -34,-26c0,-15 15,-26 34,-26c10,0 19,3 25,8l0,-110l-101,-31l0,124c0,17 -19,26 -34,26c-19,0 -34,-12 -34,-26c0,-15 15,-26 34,-26zm-214,101c9,0 17,3 23,8c0,-54 0,-109 0,-163l65,35l0,43l-52,-28l0,141c0,20 -16,36 -36,36c-20,0 -36,-16 -36,-36c0,-20 16,-36 36,-36zm-277,-50c10,0 20,3 26,9c0,-49 0,-98 0,-147l118,35c0,55 0,109 0,164c0,17 -19,26 -34,26c-19,0 -34,-12 -34,-26c0,-14 15,-26 34,-26c10,0 19,3 26,9l0,-111l-102,-30l0,123c0,17 -19,26 -34,26c-19,0 -34,-12 -34,-26c0,-14 15,-26 34,-26zm-109,-47l128,0l0,12l-128,0l0,-12zm0,46l86,0c-5,3 -10,7 -13,11l-73,0l0,-11zm0,46l75,0c5,5 11,9 18,11l-93,0l0,-11zm143,0l40,0c-2,3 -4,7 -5,11l-53,0c7,-2 14,-6 18,-11zm117,0l115,0c-7,2 -14,6 -19,11l-96,0l0,-11zm137,0l5,0l0,1c-1,0 -3,-1 -5,-1zm32,0l412,0l0,11l-412,0l0,-11zm-279,-46l88,0l0,11l-88,0l0,-11zm110,0l142,0l0,11l-142,0l0,-11zm169,0l143,0c8,6 19,9 28,9c9,0 20,-3 28,-9l43,0c-1,3 -2,7 -2,11l0,0l-240,0l0,-11zm322,0l90,0l0,11l-90,0l0,0l0,-11zm-601,-46l88,0l0,12l-88,0l0,-12zm110,0l142,0l0,12l-142,0l0,-12zm221,0l88,0c-4,4 -7,7 -8,12l-80,0l0,-12zm160,0l88,0l0,12l-88,0l0,-12zm110,0l90,0l0,12l-90,0l0,-12zm-306,12l-16,0l0,-9l16,9zm-185,-57l142,0l0,11l-142,0l0,-11zm187,0l172,0l0,11l-150,0l-22,-11zm194,0l88,0l0,11l-88,0l0,-11zm110,0l90,0l0,11l-90,0l0,-11zm-577,11l-24,0l0,-7l24,7z" class="fil0"/>
  </g>
 </g>
</svg>